<svg width="468.48125px" height="100.39999999999999px" xmlns="http://www.w3.org/2000/svg" viewBox="15.759375000000006 24.800000000000004 468.48125 100.39999999999999" style="background: rgba(0, 0, 0, 0);" preserveAspectRatio="xMidYMid"><defs><linearGradient id="editing-gradient-gradient" x1="0" x2="1" y1="0.5" y2="0.5" gradientUnits="objectBoundingBox"><stop offset="0" stop-color="#2e186a"></stop><stop offset="1" stop-color="#2e186a"></stop></linearGradient></defs><g><g transform="translate(84.45498657226562, 97.40500259399414)"><path d="M30.78 0L28.88 0L12.16-32.84L12.16 0L5.75 0L5.75-44.81L12.75-44.81L29.81-11.06L46.91-44.81L53.88-44.81L53.88 0L47.50 0L47.50-32.84L30.78 0ZM65.41-6.41L65.41-44.81L71.81-44.81L71.81-6.41L97.41-6.41L97.41-44.81L103.81-44.81L103.81-6.41L103.81-6.41Q103.81-5.09 103.31-3.92L103.31-3.92L103.31-3.92Q102.81-2.75 101.94-1.88L101.94-1.88L101.94-1.88Q101.06-1 99.89-0.50L99.89-0.50L99.89-0.50Q98.72 0 97.41 0L97.41 0L71.81 0L71.81 0Q70.50 0 69.33-0.50L69.33-0.50L69.33-0.50Q68.16-1 67.28-1.88L67.28-1.88L67.28-1.88Q66.41-2.75 65.91-3.92L65.91-3.92L65.91-3.92Q65.41-5.09 65.41-6.41L65.41-6.41ZM143.47-19.19L121.72-19.19L121.72-19.19Q120.41-19.19 119.23-19.70L119.23-19.70L119.23-19.70Q118.06-20.22 117.19-21.08L117.19-21.08L117.19-21.08Q116.31-21.94 115.81-23.11L115.81-23.11L115.81-23.11Q115.31-24.28 115.31-25.59L115.31-25.59L115.31-38.41L115.31-38.41Q115.31-39.72 115.81-40.89L115.81-40.89L115.81-40.89Q116.31-42.06 117.19-42.92L117.19-42.92L117.19-42.92Q118.06-43.78 119.23-44.30L119.23-44.30L119.23-44.30Q120.41-44.81 121.72-44.81L121.72-44.81L143.47-44.81L143.47-44.81Q144.78-44.81 145.95-44.30L145.95-44.30L145.95-44.30Q147.13-43.78 148-42.92L148-42.92L148-42.92Q148.88-42.06 149.38-40.89L149.38-40.89L149.38-40.89Q149.88-39.72 149.88-38.41L149.88-38.41L149.88-32.63L143.47-32.63L143.47-38.41L121.72-38.41L121.72-25.59L143.47-25.59L143.47-25.59Q144.78-25.59 145.95-25.09L145.95-25.09L145.95-25.09Q147.13-24.59 148-23.72L148-23.72L148-23.72Q148.88-22.84 149.38-21.67L149.38-21.67L149.38-21.67Q149.88-20.50 149.88-19.19L149.88-19.19L149.88-6.41L149.88-6.41Q149.88-5.09 149.38-3.92L149.38-3.92L149.38-3.92Q148.88-2.75 148-1.88L148-1.88L148-1.88Q147.13-1 145.95-0.50L145.95-0.50L145.95-0.50Q144.78 0 143.47 0L143.47 0L121.09 0L121.09 0Q119.78 0 118.61-0.50L118.61-0.50L118.61-0.50Q117.44-1 116.56-1.88L116.56-1.88L116.56-1.88Q115.69-2.75 115.19-3.92L115.19-3.92L115.19-3.92Q114.69-5.09 114.69-6.41L114.69-6.41L114.69-12.16L121.09-12.16L121.09-6.41L143.47-6.41L143.47-19.19ZM157.56-38.41L157.56-44.81L193.41-44.81L193.41-38.41L178.69-38.41L178.69 0L172.28 0L172.28-38.41L157.56-38.41ZM209.41-44.81L215.81-44.81L233.09 0L226.69 0L222.72-10.31L202.50-10.31L198.53 0L192.13 0L209.41-44.81ZM212.63-36.47L204.94-16.72L220.25-16.72L212.63-36.47ZM276.19-33.91L276.19-28.81L276.19-28.81Q276.19-19.44 268.19-18.13L268.19-18.13L276.63 0L269.53 0L261.22-17.91L247.19-17.91L247.19 0L240.78 0L240.78-44.81L265.31-44.81L265.31-44.81Q276.19-44.81 276.19-33.91L276.19-33.91ZM247.19-38.41L247.19-24.31L264.97-24.31L264.97-24.31Q267.53-24.31 268.66-25.44L268.66-25.44L268.66-25.44Q269.78-26.56 269.78-29.13L269.78-29.13L269.78-33.59L269.78-33.59Q269.78-36.16 268.66-37.28L268.66-37.28L268.66-37.28Q267.53-38.41 264.97-38.41L264.97-38.41L247.19-38.41ZM293.28-6.41L309.66-6.41L309.66-6.41Q314.13-6.41 316.53-8.81L316.53-8.81L316.53-8.81Q318.94-11.22 318.94-15.69L318.94-15.69L318.94-29.13L318.94-29.13Q318.94-31.31 318.31-33.03L318.31-33.03L318.31-33.03Q317.69-34.75 316.48-35.95L316.48-35.95L316.48-35.95Q315.28-37.16 313.56-37.78L313.56-37.78L313.56-37.78Q311.84-38.41 309.66-38.41L309.66-38.41L293.28-38.41L293.28-6.41ZM309.66 0L286.88 0L286.88-44.81L309.66-44.81L309.66-44.81Q313.25-44.81 316.14-43.70L316.14-43.70L316.14-43.70Q319.03-42.59 321.08-40.55L321.08-40.55L321.08-40.55Q323.13-38.50 324.23-35.59L324.23-35.59L324.23-35.59Q325.34-32.69 325.34-29.13L325.34-29.13L325.34-15.69L325.34-15.69Q325.34-12.13 324.23-9.22L324.23-9.22L324.23-9.22Q323.13-6.31 321.08-4.27L321.08-4.27L321.08-4.27Q319.03-2.22 316.14-1.11L316.14-1.11L316.14-1.11Q313.25 0 309.66 0L309.66 0Z" fill="url(#editing-gradient-gradient)"></path></g></g><style>text {
  font-size: 64px;
  font-family: Arial Black;
  dominant-baseline: central;
  text-anchor: middle;
}</style></svg>